<svg version="1" xmlns="http://www.w3.org/2000/svg" width="202.667" height="202.667" viewBox="0 0 152.000000 152.000000"><path d="M78.2 10.7C75.8 16.4 66.7 36 64.2 41l-1.8 3.5-13.4.2c-7.4.1-15 .2-16.7.2L29 45l1.8 3.2c6.2 11 19.1 36.6 18.8 36.9-.3.3-.7 1.6-.9 2.9-.3 1.4-1.5 7-2.7 12.5-1.2 5.5-2.3 10.9-2.5 12-.2 1.1-1.1 5.3-2 9.3-.9 4-1.5 7.6-1.2 7.8.5.5 26.7-12.7 29.3-14.7.7-.6 5.8 4.1 14.4 13.1 7.3 7.7 13.6 14 14 14 .3 0 .5-1.7.4-3.8-.2-2-.5-12.8-.7-23.9l-.5-20.2 8.1-8.8c4.5-4.8 10.5-11.3 13.4-14.3 2.9-3 4.9-5.8 4.5-6.1-.4-.4-6.1-3-12.7-5.9-20.2-8.7-18.9-7.7-20.1-14.7-.3-1.6-2.3-10.5-4.5-19.9C83.8 15 82 7 82 6.7c0-2.2-2 0-3.8 4z"/></svg>